<svg width="153" height="42" viewBox="0 0 153 42" fill="none" xmlns="http://www.w3.org/2000/svg">
<g clip-path="url(#clip0_126_71)">
<path d="M30.5217 5.39992L10.204 31.0589C8.19514 33.6209 5.17128 35.3879 1.90648 35.3879H0V41.4H1.90045C7.17413 41.4 12.0593 38.733 15.2849 34.611L19.3087 29.6969H37.9488V41.3969H44.2736V0.299927H41.045C36.8947 0.299927 33.0546 2.16293 30.5217 5.39992ZM24.2993 23.3999L35.6026 9.11994C36.211 8.33993 37.1055 7.647 37.9488 7.2V23.3999H24.2962H24.2993Z" fill="#F9F9F9"/>
<path d="M56.3208 12H49.996V41.4H56.3208V12Z" fill="#F9F9F9"/>
<path fill-rule="evenodd" clip-rule="evenodd" d="M100.594 26.454C100.594 17.019 107.019 11.4 115.53 11.4C124.921 11.4 130.412 17.943 130.412 26.454C130.412 36.219 124.21 42 115.53 42C106.085 42 100.594 35.397 100.594 26.454ZM115.532 36.6C110.774 36.6 107.22 32.8505 107.22 26.4528C107.22 20.6647 110.498 16.8 115.532 16.8C120.566 16.8 123.786 20.6587 123.786 26.4528C123.786 32.2469 120.721 36.6 115.532 36.6Z" fill="#F9F9F9"/>
<path d="M140.652 12H134.327V41.4H140.652V12Z" fill="#F9F9F9"/>
<path d="M152.699 0.300003H146.374V41.4H152.699V0.300003Z" fill="#F9F9F9"/>
<path d="M84.6321 8.78101V12H78.1866C73.2261 12 70.2806 13.71 68.3681 17.7V12H62.0433V41.4H68.3681V26.811C68.3681 21.27 72.0305 18 78.2318 18H84.6321V41.4H90.9569V18H99.6907V12H90.9569V9.11099C90.9569 6.906 92.1132 5.7 94.2098 5.7H100.293V0.300003H93.9532C87.8873 0.300003 84.6321 3.27 84.6321 8.78101Z" fill="#F9F9F9"/>
<path d="M137.338 8.4C139.667 8.4 141.555 6.5196 141.555 4.2C141.555 1.8804 139.667 0 137.338 0C135.009 0 133.122 1.8804 133.122 4.2C133.122 6.5196 135.009 8.4 137.338 8.4Z" fill="#F9F9F9"/>
<path d="M53.0079 8.4C55.3366 8.4 57.2244 6.5196 57.2244 4.2C57.2244 1.8804 55.3366 0 53.0079 0C50.6792 0 48.7914 1.8804 48.7914 4.2C48.7914 6.5196 50.6792 8.4 53.0079 8.4Z" fill="#F9F9F9"/>
</g>
<defs>
<clipPath id="clip0_126_71">
<rect width="153" height="42" fill="white"/>
</clipPath>
</defs>
</svg>
