<svg width="54" height="26" viewBox="0 0 54 26" fill="none" xmlns="http://www.w3.org/2000/svg">
<path d="M32.2913 25.1154V21.015H18.9648V25.1154H32.2913Z" fill="#FAFAFA"/>
<path fill-rule="evenodd" clip-rule="evenodd" d="M0 0V21.015H7.38693C13.215 21.015 17.9396 16.3106 17.9396 10.5075C17.9396 4.70435 13.215 0 7.38693 0H0ZM4.52257 4.50321V16.5118H7.38693C10.7172 16.5118 13.417 13.8235 13.417 10.5075C13.417 7.19142 10.7172 4.50321 7.38693 4.50321H4.52257Z" fill="#FAFAFA"/>
<path fill-rule="evenodd" clip-rule="evenodd" d="M35.3666 0V21.015H42.7536C48.5816 21.015 53.3062 16.3106 53.3062 10.5075C53.3062 4.70435 48.5816 0 42.7536 0H35.3666ZM39.8892 4.50321V16.5118H42.7536C46.0839 16.5118 48.7837 13.8235 48.7837 10.5075C48.7837 7.19142 46.0839 4.50321 42.7536 4.50321H39.8892Z" fill="#FAFAFA"/>
</svg>
