<svg width="213" height="61" viewBox="0 0 213 61" fill="none" xmlns="http://www.w3.org/2000/svg">
<path d="M23.4079 18.991C23.3229 17.805 23.6459 16.716 24.3389 15.66C24.8029 14.958 25.4609 14.2 26.1869 13.365C28.0599 11.208 30.3799 8.538 30.9479 5C32.1829 7.712 31.5839 10.349 30.2169 12.774C29.6019 13.864 28.9209 14.647 28.2709 15.394C27.5059 16.273 26.7849 17.102 26.2669 18.321C25.9819 18.984 25.8199 19.619 25.7439 20.24L23.4079 18.991Z" fill="#FFFF"/>
<path d="M27.416 21.1366C27.701 20.0906 28.194 19.1126 28.849 18.1636C29.391 17.3716 29.899 16.7846 30.355 16.2576C31.889 14.4826 32.841 13.3806 32.562 7.43164C32.741 7.81364 32.918 8.18164 33.09 8.53664L33.091 8.53864C34.587 11.6446 35.637 13.8226 33.873 16.8136C33.001 18.2916 32.365 19.0266 31.803 19.6766C31.17 20.4076 30.63 21.0326 29.951 22.4866L27.416 21.1366Z" fill="#FFFF"/>
<path d="M33.985 20.1997C33.297 21.0147 32.174 22.1387 32.123 22.2127L38.478 18.6597C38.345 17.4757 37.472 16.0807 36.399 14.0977C36.616 16.7117 35.596 18.2907 33.985 20.1997Z" fill="#FFFF"/>
<path d="M38.4311 19.8408C38.2601 20.5988 37.3241 22.1758 36.6361 22.9948C34.4621 25.5808 33.3301 26.6838 31.4701 30.5748C31.3651 30.1538 31.2551 29.7568 31.1501 29.3778C30.6311 27.5058 30.3121 25.9468 30.9341 24.6028L38.4311 19.8408Z" fill="#FFFF"/>
<path d="M30.0357 28.6073C29.5037 27.0503 29.1217 25.7483 29.3997 24.1013L27.1777 22.6533C27.0547 25.0763 28.0897 27.9053 30.9477 31.5473C30.7957 30.6453 30.3397 29.4973 30.0357 28.6073Z" fill="#FFFF"/>
<path d="M25.697 21.6883C25.735 22.4763 26.222 24.5593 26.658 25.6613C25.414 24.0743 24.054 21.6393 23.665 20.3633L25.697 21.6883Z" fill="#FFFF"/>
<path d="M51.868 33.5309C51.868 29.9259 45.164 26.8939 36.104 26.0449C35.24 27.0149 34.376 28.2189 33.55 29.9939L32.306 32.3569C32.069 32.7929 31.632 33.0789 31.147 33.1169C30.654 33.1549 30.179 32.9389 29.885 32.5439L29.087 31.4719C27.425 29.3499 26.209 27.6689 25.25 26.0959C16.457 27.0109 10 29.9949 10 33.5309C10 37.7939 19.382 41.2549 30.939 41.2549C31.497 41.2549 32.051 41.2469 32.599 41.2309L34.295 36.4299L34.309 36.3959C34.683 35.4609 35.583 34.8489 36.584 34.8349H36.591L51.564 34.8749C51.718 34.4979 51.868 33.9239 51.868 33.5309Z" fill="#FFFF"/>
<path d="M37.2013 41.359H48.9323L48.4193 42.66H36.7503L34.1523 50.071V42.201L35.9693 37.06C36.0723 36.8 36.3243 36.627 36.6073 36.623L50.8273 36.627L50.3013 37.909H38.4303L38.0663 38.991H49.8953L49.3333 40.277H37.6123L37.2013 41.359Z" fill="#FFFF"/>
<path d="M10.7207 36.9385C12.0717 40.7585 15.3777 45.2455 16.0807 45.9015C18.5087 48.1885 26.3317 50.0715 32.4927 50.0715V43.6325C21.8127 43.6325 13.4747 40.1735 10.7207 36.9385Z" fill="#FFFF"/>
<path fill-rule="evenodd" clip-rule="evenodd" d="M155.852 30.6324C155.119 30.6324 154.437 30.8066 153.817 31.157C153.214 31.4902 152.72 31.9665 152.334 32.5748L152.307 32.6193C152.159 32.8583 152.015 33.0903 151.904 33.3513C151.782 33.6384 151.703 33.9473 151.662 34.3512L151.607 34.9014H160.152L160.096 34.3512C160.055 33.9449 159.974 33.6333 159.845 33.3437C159.726 33.0781 159.572 32.8431 159.414 32.6011L159.397 32.5766C159.028 31.9636 158.531 31.4871 157.912 31.1552C157.29 30.8048 156.6 30.6324 155.852 30.6324ZM154.307 32.0286C154.772 31.7658 155.283 31.6324 155.852 31.6324C156.442 31.6324 156.962 31.7672 157.425 32.0288L157.435 32.0344C157.896 32.2807 158.265 32.6322 158.545 33.0992L158.55 33.1079L158.556 33.1164C158.733 33.3878 158.847 33.5612 158.931 33.7508C158.952 33.7985 158.972 33.8481 158.99 33.9014H152.765C152.783 33.8453 152.803 33.7932 152.824 33.7432C152.905 33.5537 153.011 33.381 153.177 33.1143L153.179 33.11L153.181 33.1079C153.482 32.632 153.857 32.2774 154.303 32.0311L154.307 32.0286Z" fill="#FFFF"/>
<path fill-rule="evenodd" clip-rule="evenodd" d="M138.937 22.6504H134.299V28.115H131.011V23.5H126.373V28.115H124.5V31.911H126.373V39.583C126.373 40.4768 126.548 41.2556 126.937 41.8828L126.943 41.8914L126.948 41.8997C127.346 42.4862 127.875 42.9205 128.526 43.1933C129.155 43.4562 129.836 43.585 130.566 43.585C131.105 43.585 131.636 43.5267 132.157 43.4124C132.91 43.276 133.62 43.0305 134.299 42.762V43.4684H138.937V34.7395C139.097 34.254 139.337 33.8327 139.654 33.4711C140.014 33.0608 140.41 32.7483 140.838 32.5265C141.274 32.3005 141.658 32.2024 141.993 32.2024C142.594 32.2024 143.02 32.4135 143.333 32.8209L143.34 32.829C143.672 33.2443 143.882 33.9343 143.882 34.9874V43.4684H148.52V39.1104C148.899 39.9619 149.413 40.7296 150.06 41.4123L150.064 41.4168C150.764 42.1375 151.608 42.7077 152.587 43.1296L152.594 43.1327C153.586 43.5409 154.683 43.7404 155.879 43.7404C156.978 43.7404 157.994 43.5792 158.924 43.2497L158.932 43.2467C159.852 42.9026 160.656 42.4292 161.339 41.8251C162.038 41.2226 162.58 40.5265 162.955 39.736L163.211 39.1991L159.087 38.0513L158.919 38.4637C158.734 38.9177 158.381 39.3087 157.81 39.626C157.251 39.9284 156.655 40.0794 156.015 40.0794C155.459 40.0794 154.939 39.9622 154.449 39.7265C153.99 39.48 153.602 39.1246 153.285 38.6509C153.076 38.32 152.922 37.9457 152.827 37.5234H163.679L163.733 37.085C163.752 36.9309 163.771 36.7426 163.789 36.5217L163.789 36.5186C163.808 36.2719 163.818 36.0331 163.818 35.8014C163.818 34.4369 163.5 33.1623 162.864 31.9848C162.242 30.7818 161.337 29.82 160.159 29.1044C158.961 28.359 157.536 27.9994 155.907 27.9994C154.292 27.9994 152.861 28.36 151.631 29.1017C150.435 29.8162 149.503 30.7765 148.844 31.978L148.842 31.9832C148.695 32.2589 148.565 32.5411 148.452 32.8296C148.42 32.5356 148.376 32.2462 148.321 31.9615C148.184 31.239 147.938 30.5844 147.578 30.0028C147.204 29.3823 146.686 28.8969 146.034 28.5486C145.356 28.1693 144.514 27.9994 143.54 27.9994C142.39 27.9994 141.319 28.273 140.337 28.8231C139.794 29.1265 139.344 29.4286 138.937 29.7561V22.6504ZM134.299 38.5237V31.911H131.011V38.3514C131.027 38.7597 131.138 38.9496 131.243 39.0401C131.394 39.1693 131.591 39.246 131.869 39.246C132.191 39.246 132.507 39.1919 132.817 39.0841C133.174 38.9588 133.453 38.8533 133.658 38.7681L134.299 38.5237ZM135.299 42.4684V23.6504H137.937V32.1213L138.795 31.2391C139.374 30.6446 139.962 30.178 140.825 29.6956C141.653 29.2318 142.556 28.9994 143.54 28.9994C144.409 28.9994 145.067 29.1527 145.549 29.4234L145.559 29.4288C146.061 29.6958 146.445 30.0584 146.722 30.5208L146.726 30.5272C147.016 30.9946 147.222 31.5326 147.339 32.1485L147.339 32.1504C147.459 32.7686 147.52 33.4157 147.52 34.0914V42.4684H144.882V34.9874C144.882 33.8348 144.658 32.8783 144.123 32.2079C143.604 31.534 142.874 31.2024 141.993 31.2024C141.46 31.2024 140.919 31.3585 140.378 31.6385C139.83 31.9226 139.337 32.3166 138.902 32.812C138.474 33.301 138.159 33.8703 137.959 34.513L137.937 34.5855V42.4684H135.299ZM152.147 29.9585C153.198 29.3246 154.444 28.9994 155.907 28.9994C157.388 28.9994 158.622 29.3253 159.632 29.9548L159.637 29.9578C160.665 30.5813 161.442 31.4096 161.977 32.4477L161.982 32.4562C162.539 33.4855 162.818 34.5975 162.818 35.8014C162.818 36.0051 162.809 36.2178 162.792 36.4405L162.785 36.5234H151.69L151.744 37.0729C151.823 37.8642 152.052 38.574 152.443 39.191L152.45 39.2007C152.854 39.8077 153.367 40.2833 153.988 40.6138L153.996 40.6183L154.005 40.6225C154.636 40.928 155.308 41.0794 156.015 41.0794C156.822 41.0794 157.583 40.8868 158.289 40.504L158.294 40.5015C158.879 40.1762 159.337 39.7587 159.644 39.2444L161.762 39.8339C161.479 40.2818 161.121 40.6934 160.684 41.0693L160.678 41.0742C160.096 41.5901 159.401 42.0032 158.586 42.3085C157.778 42.5942 156.878 42.7404 155.879 42.7404C154.797 42.7404 153.833 42.5604 152.979 42.2096C152.114 41.8362 151.384 41.3395 150.784 40.7222C150.176 40.08 149.704 39.356 149.366 38.5469C149.047 37.7219 148.887 36.8522 148.887 35.9374C148.887 34.6575 149.167 33.5 149.723 32.4561C150.294 31.4152 151.099 30.5846 152.145 29.9597L152.147 29.9585ZM127.373 29.115V24.5H130.011V29.115H133.677V30.911H130.011V38.3702L130.011 38.3794C130.032 38.9425 130.193 39.4571 130.593 39.8002C130.95 40.1048 131.387 40.246 131.869 40.246C132.306 40.246 132.733 40.1721 133.146 40.0282L133.148 40.0278C133.275 39.9831 133.394 39.9404 133.505 39.8998L133.991 41.8082C133.315 42.0775 132.656 42.3066 131.97 42.4299L131.961 42.4316L131.951 42.4338C131.497 42.534 131.035 42.585 130.566 42.585C129.956 42.585 129.407 42.4778 128.912 42.2707C128.444 42.0748 128.071 41.7698 127.782 41.3467C127.522 40.9247 127.373 40.348 127.373 39.583V30.911H125.5V29.115H127.373Z" fill="#FFFF"/>
<path fill-rule="evenodd" clip-rule="evenodd" d="M62.8202 43.2116C63.6492 43.5886 64.5522 43.7766 65.5312 43.7766C66.5292 43.7766 67.4702 43.5506 68.3542 43.0986C69.2582 42.6286 69.9542 41.9696 70.4442 41.1226V42.9856C70.4442 43.9456 70.2372 44.7266 69.8222 45.3296C69.4272 45.9506 68.8912 46.4026 68.2132 46.6846C67.5542 46.9856 66.8202 47.1366 66.0112 47.1366C65.0512 47.1366 64.1382 46.9386 63.2722 46.5436C62.4252 46.1486 61.7192 45.6026 61.1552 44.9056L59.0942 46.9106C59.8842 47.8896 60.8352 48.6426 61.9452 49.1696C63.0562 49.7146 64.4112 49.9876 66.0112 49.9876C67.5922 49.9876 69.0042 49.7056 70.2462 49.1406C71.4882 48.5956 72.4582 47.7946 73.1542 46.7416C73.8692 45.7056 74.2272 44.4546 74.2272 42.9856V28.8976H70.9232V31.4946C70.3592 30.6286 69.6442 29.9416 68.7782 29.4336C67.9122 28.9066 66.9052 28.6436 65.7572 28.6436C64.7402 28.6436 63.8092 28.8406 62.9622 29.2366C62.1332 29.6126 61.4092 30.1586 60.7882 30.8736C60.1852 31.5706 59.7152 32.3796 59.3762 33.3016C59.0372 34.2236 58.8682 35.2216 58.8682 36.2946C58.8682 37.3106 59.0282 38.2706 59.3482 39.1746C59.6682 40.0776 60.1192 40.8776 60.7032 41.5746C61.3052 42.2706 62.0112 42.8166 62.8202 43.2116ZM67.9872 40.5576C67.6112 40.6896 67.2162 40.7556 66.8012 40.7556C66.2372 40.7556 65.7002 40.6426 65.1922 40.4166C64.7032 40.1906 64.2702 39.8806 63.8932 39.4846C63.5362 39.0896 63.2532 38.6286 63.0462 38.1016C62.8392 37.5746 62.7362 37.0096 62.7362 36.4076C62.7362 35.8236 62.8202 35.2686 62.9902 34.7416C63.1782 34.1956 63.4422 33.7066 63.7802 33.2736C64.1192 32.8216 64.5242 32.4736 64.9942 32.2286C65.4652 31.9846 65.9922 31.8616 66.5762 31.8616C67.1212 31.8616 67.6392 31.9846 68.1282 32.2286C68.6372 32.4546 69.0882 32.7846 69.4842 33.2166C69.8982 33.6496 70.2182 34.1586 70.4442 34.7416V38.2706C70.3122 38.5906 70.1242 38.9106 69.8792 39.2306C69.6342 39.5316 69.3522 39.7956 69.0322 40.0216C68.7122 40.2476 68.3642 40.4266 67.9872 40.5576Z" fill="#FFFF"/>
<path d="M82.2388 32.8502C83.1428 32.3992 84.1688 32.1732 85.3168 32.1732V28.7282C85.2418 28.7092 85.1468 28.7002 85.0338 28.7002H84.5548C83.6508 28.7572 82.7948 29.0772 81.9848 29.6602C81.1758 30.2442 80.5078 31.0432 79.9808 32.0602V28.8982H76.5078V43.6922H80.2908V34.7422C80.6868 33.9142 81.3358 33.2832 82.2388 32.8502Z" fill="#FFFF"/>
<path fill-rule="evenodd" clip-rule="evenodd" d="M92.9369 43.9746C91.7319 43.9746 90.6499 43.7766 89.6899 43.3816C88.7299 42.9676 87.9109 42.4026 87.2329 41.6876C86.5749 40.9716 86.0659 40.1536 85.7089 39.2306C85.3509 38.3086 85.1719 37.3396 85.1719 36.3226C85.1719 35.2876 85.3509 34.3086 85.7089 33.3866C86.0659 32.4646 86.5749 31.6456 87.2329 30.9296C87.9109 30.2146 88.7299 29.6596 89.6899 29.2646C90.6499 28.8506 91.7319 28.6436 92.9369 28.6436C94.1409 28.6436 95.2139 28.8506 96.1549 29.2646C97.1149 29.6596 97.9339 30.2146 98.6119 30.9296C99.2889 31.6456 99.7979 32.4646 100.136 33.3866C100.494 34.3086 100.673 35.2876 100.673 36.3226C100.673 37.3396 100.494 38.3086 100.136 39.2306C99.7979 40.1536 99.2889 40.9716 98.6119 41.6876C97.9529 42.4026 97.1439 42.9676 96.1839 43.3816C95.2239 43.7766 94.1409 43.9746 92.9369 43.9746ZM89.0689 36.3226C89.0689 37.1886 89.2379 37.9606 89.5769 38.6376C89.9159 39.2966 90.3769 39.8146 90.9599 40.1906C91.5439 40.5676 92.2029 40.7556 92.9369 40.7556C93.6519 40.7556 94.3009 40.5676 94.8849 40.1906C95.4679 39.7956 95.9299 39.2686 96.2679 38.6096C96.6259 37.9326 96.8049 37.1606 96.8049 36.2946C96.8049 35.4476 96.6259 34.6856 96.2679 34.0076C95.9299 33.3296 95.4679 32.8026 94.8849 32.4266C94.3009 32.0496 93.6519 31.8616 92.9369 31.8616C92.2029 31.8616 91.5439 32.0596 90.9599 32.4546C90.3769 32.8316 89.9159 33.3586 89.5769 34.0356C89.2379 34.6946 89.0689 35.4566 89.0689 36.3226Z" fill="#FFFF"/>
<path d="M123.538 28.8984H119.953L115.576 40.0784L113.826 35.2504L116.395 28.9264H113.261L111.708 33.4434L110.184 28.9264H107.05L109.619 35.2504L107.897 40.0784L103.492 28.8984H99.9351L106.09 43.6924H109.28L111.708 37.3404L114.193 43.6924H117.355L123.538 28.8984Z" fill="#FFFF"/>
<path fill-rule="evenodd" clip-rule="evenodd" d="M171.255 43.2126C172.14 43.7206 173.156 43.9746 174.304 43.9746C175.566 43.9746 176.676 43.6356 177.636 42.9586C178.615 42.2616 179.377 41.3306 179.923 40.1636C180.488 38.9966 180.77 37.6976 180.77 36.2666C180.77 35.2126 180.591 34.2336 180.234 33.3306C179.895 32.4086 179.415 31.5986 178.794 30.9026C178.172 30.1876 177.438 29.6316 176.591 29.2366C175.763 28.8416 174.85 28.6436 173.853 28.6436C172.742 28.6436 171.754 28.8976 170.888 29.4056C170.022 29.8956 169.307 30.5726 168.742 31.4386V28.8976H165.439V49.7066H169.222V41.0946C169.712 41.9796 170.389 42.6856 171.255 43.2126ZM174.615 40.3886C174.144 40.6336 173.617 40.7556 173.034 40.7556C172.507 40.7556 171.989 40.6336 171.481 40.3886C170.973 40.1256 170.521 39.7676 170.126 39.3166C169.749 38.8646 169.448 38.3656 169.222 37.8196V34.3466C169.335 33.9896 169.514 33.6596 169.759 33.3586C170.022 33.0576 170.323 32.7946 170.662 32.5686C171.001 32.3426 171.349 32.1726 171.707 32.0596C172.083 31.9286 172.45 31.8626 172.808 31.8626C173.391 31.8626 173.928 31.9756 174.417 32.2016C174.926 32.4266 175.368 32.7466 175.744 33.1616C176.121 33.5566 176.403 34.0176 176.591 34.5446C176.798 35.0716 176.902 35.6456 176.902 36.2666C176.902 36.8506 176.808 37.4146 176.62 37.9606C176.45 38.4876 176.187 38.9676 175.829 39.4006C175.49 39.8146 175.086 40.1446 174.615 40.3886Z" fill="#FFFF"/>
<path d="M182.205 43.693V28.898H185.988V43.693H182.205Z" fill="#FFFF"/>
<path d="M182.205 26.837V23.082H185.988V26.837H182.205Z" fill="#FFFF"/>
<path fill-rule="evenodd" clip-rule="evenodd" d="M191.913 43.3816C192.873 43.7766 193.946 43.9746 195.132 43.9746C196.223 43.9746 197.221 43.8146 198.125 43.4946C199.028 43.1556 199.809 42.6946 200.468 42.1116C201.146 41.5276 201.663 40.8596 202.021 40.1066L198.774 39.2036C198.529 39.8056 198.068 40.2946 197.39 40.6716C196.732 41.0286 196.026 41.2076 195.273 41.2076C194.614 41.2076 193.993 41.0666 193.409 40.7846C192.845 40.4836 192.374 40.0506 191.998 39.4856C191.64 38.9206 191.424 38.2616 191.348 37.5096H202.783C202.802 37.3586 202.821 37.1706 202.84 36.9446C202.858 36.6996 202.868 36.4646 202.868 36.2386C202.868 34.9026 202.557 33.6596 201.936 32.5116C201.334 31.3446 200.458 30.4126 199.31 29.7166C198.162 29.0016 196.779 28.6436 195.16 28.6436C193.56 28.6436 192.167 29.0016 190.981 29.7166C189.814 30.4126 188.911 31.3446 188.271 32.5116C187.65 33.6786 187.339 34.9686 187.339 36.3796C187.339 37.3966 187.518 38.3656 187.876 39.2876C188.252 40.1916 188.779 41.0006 189.457 41.7156C190.134 42.4126 190.953 42.9676 191.913 43.3816ZM199 35.1096H191.264C191.339 34.3566 191.546 33.7066 191.885 33.1616C192.242 32.5966 192.694 32.1636 193.24 31.8626C193.805 31.5426 194.426 31.3826 195.103 31.3826C195.8 31.3826 196.43 31.5426 196.995 31.8626C197.56 32.1636 198.012 32.5966 198.35 33.1616C198.708 33.7066 198.924 34.3566 199 35.1096Z" fill="#FFFF"/>
</svg>
