<svg width="2500" height="1000" viewBox="0 0 2500 1000" fill="none" xmlns="http://www.w3.org/2000/svg">
<path d="M574.652 253H675.119C688.826 253 701.089 260.959 705.874 272.961L794.058 494.148C794.739 495.854 794.747 497.731 794.081 499.443L793.587 500.714L793.582 500.726L705.769 726.524C701.054 738.646 688.726 746.716 674.923 746.716H574.471C568.822 746.716 564.862 741.506 566.724 736.523L657.271 494.148L566.946 263.299C564.989 258.297 568.952 253 574.652 253Z" fill="white"/>
<path d="M312.393 253H412.86C426.567 253 438.83 260.959 443.614 272.961L531.799 494.148C532.479 495.854 532.487 497.731 531.822 499.443L531.327 500.714L531.322 500.726L443.509 726.524C438.795 738.646 426.467 746.716 412.664 746.716H312.212C306.563 746.716 302.603 741.506 304.465 736.523L395.012 494.148L304.687 263.299C302.73 258.297 306.693 253 312.393 253Z" fill="white"/>
<path d="M642.826 447H501V554H642.826L666 498.971L642.826 447Z" fill="white"/>
<path d="M525.652 253H626.119C639.826 253 652.089 260.959 656.874 272.961L745.058 494.148C745.739 495.854 745.747 497.731 745.081 499.443L744.587 500.714L744.582 500.726L656.769 726.524C652.054 738.646 639.726 746.716 625.923 746.716H525.471C519.822 746.716 515.862 741.506 517.724 736.523L608.271 494.148L517.946 263.299C515.989 258.297 519.952 253 525.652 253Z" fill="white"/>
<path d="M263.393 253H363.86C377.567 253 389.83 260.959 394.614 272.961L482.799 494.148C483.479 495.854 483.487 497.731 482.822 499.443L482.327 500.714L482.322 500.726L394.509 726.524C389.795 738.646 377.467 746.716 363.664 746.716H263.212C257.563 746.716 253.603 741.506 255.465 736.523L346.012 494.148L255.687 263.299C253.73 258.297 257.693 253 263.393 253Z" fill="white"/>
<path d="M593.826 447H452V554H593.826L617 498.971L593.826 447Z" fill="white"/>
<path d="M949.5 605V390.5H993V474.5H1077.3V390.5H1120.8V605H1077.3V510.5H993V605H949.5Z" fill="white"/>
<path d="M1153.7 655.4V623.3H1168.1C1183.3 623.3 1190.9 616.3 1190.9 602.3C1190.9 595.5 1187 581.6 1179.2 560.6L1137.8 451.1H1180.7L1203.5 520.4L1213.4 554H1214C1216.8 541 1219.8 529.8 1223 520.4L1244.6 451.1H1285.7L1232 608.9C1226 626.5 1219.2 638.6 1211.6 645.2C1204.2 652 1192.9 655.4 1177.7 655.4H1153.7Z" fill="white"/>
<path d="M1299.52 655.4V451.1H1338.82V470.3H1339.72C1351.12 454.7 1366.22 446.9 1385.02 446.9C1405.22 446.9 1421.42 454.4 1433.62 469.4C1445.82 484.4 1451.92 504 1451.92 528.2C1451.92 553 1445.82 572.8 1433.62 587.6C1421.42 602.2 1405.32 609.5 1385.32 609.5C1365.32 609.5 1350.52 602.2 1340.92 587.6H1340.32V655.4H1299.52ZM1376.62 575.6C1387.02 575.6 1395.22 571.5 1401.22 563.3C1407.42 555.1 1410.52 543.8 1410.52 529.4C1410.52 514 1407.62 501.9 1401.82 493.1C1396.02 484.3 1387.12 479.9 1375.12 479.9C1362.92 479.9 1353.92 484.5 1348.12 493.7C1342.32 502.7 1339.42 514.6 1339.42 529.4C1339.42 543.6 1342.62 554.9 1349.02 563.3C1355.42 571.5 1364.62 575.6 1376.62 575.6Z" fill="white"/>
<path d="M1543.21 609.5C1518.41 609.5 1498.91 601.9 1484.71 586.7C1470.51 571.3 1463.41 551.7 1463.41 527.9C1463.41 504.9 1470.51 485.7 1484.71 470.3C1498.91 454.7 1517.11 446.9 1539.31 446.9C1563.51 446.9 1582.21 455.3 1595.41 472.1C1608.61 488.9 1615.21 511.4 1615.21 539.6H1503.61C1505.21 551.8 1509.31 561.3 1515.91 568.1C1522.51 574.7 1531.51 578 1542.91 578C1557.91 578 1567.81 571.7 1572.61 559.1H1612.81C1609.81 573.5 1602.21 585.5 1590.01 595.1C1577.81 604.7 1562.21 609.5 1543.21 609.5ZM1539.91 478.4C1520.11 478.4 1508.21 489.4 1504.21 511.4H1572.61C1572.01 501.6 1568.71 493.7 1562.71 487.7C1556.71 481.5 1549.11 478.4 1539.91 478.4Z" fill="white"/>
<path d="M1673.39 451.1V475.7H1674.29C1679.09 466.7 1684.39 460.1 1690.19 455.9C1695.99 451.5 1703.29 449.3 1712.09 449.3C1716.29 449.3 1719.49 449.7 1721.69 450.5V486.2H1720.79C1706.99 484.8 1695.89 487.8 1687.49 495.2C1679.09 502.6 1674.89 514.2 1674.89 530V605H1634.09V451.1H1673.39Z" fill="white"/>
<path d="M1739.87 605V390.5H1780.67V605H1739.87Z" fill="white"/>
<path d="M1904.43 605C1902.43 602.4 1900.83 596.7 1899.63 587.9H1899.03C1894.63 594.5 1889.03 599.6 1882.23 603.2C1875.43 606.8 1865.93 608.6 1853.73 608.6C1837.53 608.6 1824.53 604.5 1814.73 596.3C1804.93 588.1 1800.03 576.5 1800.03 561.5C1800.03 545.9 1805.43 534.5 1816.23 527.3C1827.03 519.9 1842.23 514.8 1861.83 512C1876.23 510 1886.03 508 1891.23 506C1896.43 503.8 1899.03 500 1899.03 494.6C1899.03 489 1896.83 484.6 1892.43 481.4C1888.03 478 1881.63 476.3 1873.23 476.3C1854.63 476.3 1844.73 483.5 1843.53 497.9H1807.23C1807.83 483.3 1813.73 471.2 1824.93 461.6C1836.13 452 1852.33 447.2 1873.53 447.2C1916.73 447.2 1938.33 466.1 1938.33 503.9V582.2C1938.33 593.8 1940.13 600.9 1943.73 603.5V605H1904.43ZM1863.63 580.1C1874.83 580.1 1883.63 577.2 1890.03 571.4C1896.63 565.6 1899.93 558.7 1899.93 550.7V527.6C1895.53 530.2 1886.03 533.2 1871.43 536.6C1859.83 539.2 1851.63 542.2 1846.83 545.6C1842.03 548.8 1839.63 553.8 1839.63 560.6C1839.63 573.6 1847.63 580.1 1863.63 580.1Z" fill="white"/>
<path d="M2004.17 451.1V472.1H2005.07C2015.67 455.3 2030.87 446.9 2050.67 446.9C2066.47 446.9 2079.27 452.3 2089.07 463.1C2098.87 473.7 2103.77 487.5 2103.77 504.5V605H2062.97V510.5C2062.97 502.1 2060.57 495.3 2055.77 490.1C2051.17 484.9 2044.67 482.3 2036.27 482.3C2027.27 482.3 2019.77 485.6 2013.77 492.2C2007.97 498.8 2005.07 507.3 2005.07 517.7V605H1964.27V451.1H2004.17Z" fill="white"/>
<path d="M2201.21 609.5C2176.41 609.5 2156.91 601.9 2142.71 586.7C2128.51 571.3 2121.41 551.7 2121.41 527.9C2121.41 504.9 2128.51 485.7 2142.71 470.3C2156.91 454.7 2175.11 446.9 2197.31 446.9C2221.51 446.9 2240.21 455.3 2253.41 472.1C2266.61 488.9 2273.21 511.4 2273.21 539.6H2161.61C2163.21 551.8 2167.31 561.3 2173.91 568.1C2180.51 574.7 2189.51 578 2200.91 578C2215.91 578 2225.81 571.7 2230.61 559.1H2270.81C2267.81 573.5 2260.21 585.5 2248.01 595.1C2235.81 604.7 2220.21 609.5 2201.21 609.5ZM2197.91 478.4C2178.11 478.4 2166.21 489.4 2162.21 511.4H2230.61C2230.01 501.6 2226.71 493.7 2220.71 487.7C2214.71 481.5 2207.11 478.4 2197.91 478.4Z" fill="white"/>
</svg>
