<svg width="119" height="49" viewBox="0 0 119 49" fill="none" xmlns="http://www.w3.org/2000/svg">
<path d="M19.9853 8.10213C19.9853 12.7463 16.7573 15.8088 11.6529 15.8088H6.44923V22.5602H1.01465V0.494019H11.8831C16.8566 0.494019 19.9853 3.55727 19.9853 8.10213ZM14.65 8.16831C14.65 6.38963 13.3654 5.13815 11.2573 5.13815H6.44848V11.2639H11.2573C13.3654 11.2639 14.65 10.0455 14.65 8.16831Z" fill="white"/>
<path d="M44.9835 11.5603C44.9835 17.9824 39.8129 23.0545 33.2254 23.0545C26.6379 23.0545 21.4673 17.9824 21.4673 11.5603C21.4673 5.13825 26.6379 0 33.2254 0C39.8129 0 44.9835 5.10516 44.9835 11.5603ZM39.549 11.5603C39.549 7.77281 36.8151 4.97355 33.2254 4.97355C29.6357 4.97355 26.9019 7.77281 26.9019 11.5603C26.9019 15.3478 29.6357 18.0817 33.2254 18.0817C36.8151 18.0817 39.549 15.3147 39.549 11.5603Z" fill="white"/>
<path d="M61.2892 18.5427H52.0017L50.4539 22.5611H44.6245L53.8466 0.494873H59.4128L68.6349 22.5611H62.8385L61.2907 18.5427H61.2892ZM53.8458 13.8662H59.4782L56.6459 6.62062L53.8466 13.8662H53.8458Z" fill="white"/>
<path d="M88.8574 8.10213C88.8574 12.7463 85.6294 15.8088 80.525 15.8088H75.3213V22.5602H69.8867V0.494019H80.7551C85.7287 0.494019 88.8574 3.55727 88.8574 8.10213ZM83.522 8.16831C83.522 6.38963 82.2375 5.13815 80.1294 5.13815H75.3213V11.2639H80.1294C82.2375 11.2639 83.522 10.0455 83.522 8.16831Z" fill="white"/>
<path d="M18.799 32.3337L13.4637 33.4205C13.0689 31.3455 11.3556 30.3249 9.61001 30.3249C7.86441 30.3249 6.64603 31.3131 6.64603 32.5646C6.64603 33.4536 7.04163 34.1124 8.42472 34.4095L13.0027 35.4308C16.8233 36.2867 19.063 38.3617 19.063 41.8529C19.063 46.5624 14.8799 48.9999 9.97327 48.9999C5.06665 48.9999 0.915886 46.6286 0.323242 42.3139L5.92253 41.2271C6.48208 43.4999 8.06372 44.4874 10.2703 44.4874C12.3123 44.4874 13.5306 43.5654 13.5306 42.2146C13.5306 41.2264 13.0696 40.6006 11.4887 40.2712L6.87768 39.283C3.71591 38.5587 0.948979 36.9117 0.948979 32.8933C0.948979 28.6116 4.5056 25.944 9.67694 25.944C14.4858 25.944 17.9762 28.3153 18.7998 32.333L18.799 32.3337Z" fill="white"/>
<path d="M32.4035 48.5051H27.0021V31.1815H19.855V26.4388H39.5506V31.1815H32.4035V48.5051Z" fill="white"/>
<path d="M51.408 48.9992C45.4139 48.9992 41.3955 44.8823 41.3955 38.5587V26.4388H46.8301V38.5587C46.8301 41.9183 48.6419 43.9933 51.408 43.9933C54.0103 43.9933 55.7558 41.9183 55.7558 38.5587V26.4388H61.1904V38.5587C61.1904 44.8823 57.2713 48.9992 51.4088 48.9992H51.408Z" fill="white"/>
<path d="M85.1021 37.472C85.1021 44.0264 80.294 48.5051 73.0146 48.5051H64.2866V26.4388H73.0146C80.2933 26.4388 85.1021 30.9183 85.1021 37.472ZM79.6352 37.472C79.6352 33.6514 76.9345 31.1484 72.8175 31.1484H69.7212V43.7955H72.8175C76.9345 43.7955 79.6352 41.2926 79.6352 37.472Z" fill="white"/>
<path d="M87.5083 26.4388H92.9429V48.5051H87.5083V26.4388Z" fill="white"/>
<path d="M118.863 37.505C118.863 43.9271 113.692 48.9992 107.105 48.9992C100.517 48.9992 95.3472 43.9271 95.3472 37.505C95.3472 31.083 100.518 25.9447 107.105 25.9447C113.691 25.9447 118.863 31.0499 118.863 37.505ZM113.428 37.505C113.428 33.7175 110.695 30.9183 107.105 30.9183C103.514 30.9183 100.781 33.7175 100.781 37.505C100.781 41.2925 103.515 44.0264 107.105 44.0264C110.694 44.0264 113.428 41.2602 113.428 37.505Z" fill="white"/>
</svg>
