<svg width="384" height="120" viewBox="0 0 384 120" fill="none" xmlns="http://www.w3.org/2000/svg">
<path d="M349.731 94.5761C346.696 94.5761 344.268 93.6655 342.447 91.8444C340.693 90.0232 339.816 87.595 339.816 84.5598V53.4991H326.056V44.6969H339.816V28.2054H350.237V44.6969H365.11V53.4991H350.237V82.7386C350.237 84.7621 351.181 85.7739 353.07 85.7739H363.491V94.5761H349.731Z" fill="white"/>
<path d="M274.196 94.5636V44.6845H284.414V52.1714H286.033C286.978 50.1479 288.664 48.2593 291.092 46.5056C293.52 44.7519 297.129 43.8751 301.918 43.8751C305.695 43.8751 309.034 44.7182 311.934 46.4044C314.902 48.0907 317.229 50.4852 318.915 53.5879C320.601 56.6231 321.444 60.2991 321.444 64.6159V94.5636H311.023V65.4253C311.023 61.1085 309.944 57.9384 307.786 55.9149C305.627 53.8239 302.66 52.7785 298.882 52.7785C294.566 52.7785 291.092 54.1949 288.461 57.0278C285.898 59.8607 284.617 63.9751 284.617 69.3711V94.5636H274.196Z" fill="white"/>
<path d="M242.024 95.9844C236.965 95.9844 232.547 94.939 228.77 92.848C224.993 90.6896 222.025 87.6881 219.867 83.8435C217.776 79.9314 216.73 75.4123 216.73 70.2861V69.072C216.73 63.8783 217.776 59.3592 219.867 55.5145C221.958 51.6024 224.858 48.6009 228.568 46.51C232.345 44.3516 236.696 43.2724 241.619 43.2724C246.408 43.2724 250.59 44.3516 254.165 46.51C257.807 48.6009 260.64 51.535 262.664 55.3122C264.687 59.0894 265.699 63.5074 265.699 68.5661V72.5119H227.354C227.489 76.8961 228.939 80.4035 231.704 83.0341C234.537 85.5972 238.045 86.8787 242.226 86.8787C246.138 86.8787 249.073 86.0019 251.029 84.2482C253.052 82.4945 254.603 80.471 255.683 78.1777L264.283 82.6294C263.338 84.518 261.955 86.5078 260.134 88.5987C258.381 90.6896 256.054 92.4433 253.153 93.8598C250.253 95.2762 246.543 95.9844 242.024 95.9844ZM227.455 64.5191H255.076C254.806 60.7419 253.457 57.8078 251.029 55.7169C248.6 53.5585 245.43 52.4793 241.518 52.4793C237.606 52.4793 234.402 53.5585 231.907 55.7169C229.478 57.8078 227.994 60.7419 227.455 64.5191Z" fill="white"/>
<path d="M197.32 94.568V23.7456H207.741V94.568H197.32Z" fill="white"/>
<path d="M158.454 95.9844C154.879 95.9844 151.675 95.3774 148.842 94.1633C146.077 92.9492 143.851 91.1618 142.165 88.801C140.546 86.4403 139.736 83.5737 139.736 80.2012C139.736 76.7612 140.546 73.9284 142.165 71.7025C143.851 69.4092 146.11 67.6892 148.943 66.5426C151.844 65.3959 155.115 64.8226 158.757 64.8226H173.933V61.585C173.933 58.6847 173.057 56.3577 171.303 54.604C169.549 52.8503 166.851 51.9734 163.209 51.9734C159.634 51.9734 156.902 52.8165 155.014 54.5028C153.125 56.189 151.877 58.3812 151.27 61.0792L141.557 57.9427C142.367 55.2447 143.648 52.8166 145.402 50.6582C147.223 48.4323 149.618 46.6449 152.586 45.2959C155.553 43.9469 159.128 43.2724 163.31 43.2724C169.785 43.2724 174.878 44.9249 178.587 48.23C182.297 51.535 184.152 56.2228 184.152 62.2933V82.8317C184.152 84.8552 185.096 85.867 186.985 85.867H191.234V94.568H183.444C181.083 94.568 179.161 93.961 177.677 92.7469C176.193 91.5328 175.451 89.8802 175.451 87.7893V87.4858H173.933C173.394 88.4975 172.584 89.6779 171.505 91.0269C170.426 92.3759 168.841 93.5563 166.75 94.568C164.659 95.5123 161.894 95.9844 158.454 95.9844ZM159.971 87.3846C164.153 87.3846 167.526 86.2042 170.089 83.8435C172.652 81.4153 173.933 78.1102 173.933 73.9283V72.9166H159.364C156.599 72.9166 154.373 73.5237 152.687 74.7377C151 75.8844 150.157 77.6044 150.157 79.8977C150.157 82.191 151.034 84.0121 152.788 85.3611C154.542 86.7101 156.936 87.3846 159.971 87.3846Z" fill="white"/>
<path d="M119.498 94.5761C116.463 94.5761 114.034 93.6655 112.213 91.8444C110.46 90.0232 109.583 87.595 109.583 84.5598V53.4991H95.823V44.6969H109.583V28.2054H120.004V44.6969H134.876V53.4991H120.004V82.7386C120.004 84.7621 120.948 85.7739 122.837 85.7739H133.258V94.5761H119.498Z" fill="white"/>
<path d="M8.41476 41.7788C10.2415 43.6002 12.6771 44.5109 15.7217 44.5109L46.86 44.5109L43.353 34.4933H18.5633C16.6689 34.4933 15.7217 33.4814 15.7217 31.4577L15.7217 6.81274L5.77613 3.42871L5.77612 34.4933C5.77612 37.5289 6.65567 39.9574 8.41476 41.7788Z" fill="white"/>
<path d="M8.41476 91.8629C10.2415 93.6842 12.6771 94.5949 15.7217 94.5949H46.86L43.353 84.5773H18.5633C16.6689 84.5773 15.7217 83.5655 15.7217 81.5417L15.7217 56.8968L5.77613 53.5128L5.77612 84.5773C5.77612 87.613 6.65567 90.0415 8.41476 91.8629Z" fill="white"/>
</svg>
