<svg width="587" height="152" viewBox="0 0 587 152" fill="none" xmlns="http://www.w3.org/2000/svg">
<g clip-path="url(#clip0_1704_1598)">
<path fill-rule="evenodd" clip-rule="evenodd" d="M344.34 15.09C344.34 23.45 337.4 30.18 329.04 30.18C320.47 30.18 313.34 23.45 313.34 15.09C313.34 6.73 320.47 0 329.04 0C337.41 0 344.34 6.73 344.34 15.09ZM338.62 148.88H319.04C317.41 148.88 316.39 147.86 316.39 146.23V49.55C316.39 47.92 317.41 46.9 319.04 46.9H338.62C340.45 46.9 341.27 47.92 341.27 49.55V146.23C341.27 147.86 340.25 148.88 338.62 148.88ZM128.27 86.8799H178.24C179.46 86.8799 180.28 86.0699 180.07 84.8399C178.24 73.0099 166.82 64.6499 152.54 64.6499C138.68 64.6499 127.66 73.0099 126.03 84.6399C125.82 85.8599 126.84 86.8799 128.27 86.8799ZM100.73 97.2799C100.73 66.8899 122.76 44.6599 152.74 44.6599C181.91 44.6599 205.97 64.4499 203.92 101.34C203.92 103.59 202.29 105.22 199.84 105.22H127.64C126.21 105.22 125.6 106.24 125.8 107.67C126.82 120.73 138.65 130.72 153.13 130.72C163.74 130.72 172.71 125.83 177.2 117.67C177.82 116.24 178.63 115.63 180.06 115.63H199.44C201.07 115.63 202.09 116.85 201.48 118.89C195.57 138.07 176.8 151.12 154.98 151.12C122.96 151.12 100.73 129.1 100.73 97.2799ZM84.6301 148.88H2.64008C1.01008 148.88 -0.00992714 147.86 7.28631e-05 146.22V134.19C7.28631e-05 132.56 0.41007 130.93 1.63007 129.5L52.2101 70.3499C53.2301 69.1199 52.4201 67.4899 50.9901 67.4899H4.28008C2.65008 67.4899 1.63007 66.4699 1.63007 64.8399V49.5399C1.63007 47.9099 2.65008 46.8899 4.28008 46.8899H82.8001C84.4301 46.8899 85.4501 47.9099 85.4501 49.5399V61.1699C85.4501 63.2099 84.8401 64.6399 83.4101 66.2699L32.6201 125.42C31.6001 126.65 32.6201 128.28 34.0501 128.28H84.6301C86.2601 128.28 87.2801 129.3 87.2801 130.93V146.23C87.2801 147.86 86.2601 148.88 84.6301 148.88ZM292.21 46.9099H278.75C266.31 46.9099 258.35 51.3999 254.07 60.9799C252.85 63.6299 249.38 63.0199 249.38 60.3699V49.5599C249.38 47.9299 248.36 46.9099 246.73 46.9099H229.6C227.97 46.9099 226.95 47.9299 226.95 49.5599V146.24C226.95 147.87 227.97 148.89 229.6 148.89H249.18C251.02 148.89 251.83 147.67 251.83 146.24V77.2999C251.83 74.8499 253.67 72.4099 256.32 72.4099H292.22C293.85 72.4099 294.87 71.3899 294.87 69.7599V49.5699C294.86 47.9299 293.84 46.9099 292.21 46.9099ZM415.78 129.71C398.85 129.71 386.82 116.25 386.82 97.4799C386.82 79.1199 398.85 66.0699 415.78 66.0699C432.71 66.0699 444.95 79.1199 444.95 97.4799C444.95 116.25 432.71 129.71 415.78 129.71ZM415.99 151.13C447.4 151.13 469.83 128.69 469.83 97.2899C469.83 66.6999 447.39 44.6699 415.99 44.6699C384.38 44.6699 361.74 66.6999 361.74 97.2899C361.74 128.69 384.37 151.13 415.99 151.13ZM586.92 86.4699V146.23C586.92 147.86 585.9 148.88 584.28 148.88H564.7C563.07 148.88 562.05 147.86 562.05 146.23V90.9599C562.05 75.0499 554.09 66.0799 540.02 66.0799C523.7 66.0799 514.93 75.4599 514.93 93.6099V146.23C514.93 147.86 513.91 148.88 512.28 148.88H492.7C491.07 148.88 490.05 147.86 490.05 146.23V49.5499C490.05 47.9199 491.07 46.8999 492.7 46.8999H509.83C511.46 46.8999 512.48 47.9199 512.48 49.7599V57.5099C512.48 59.9599 514.93 60.5699 516.56 58.5299C523.49 49.5499 534.3 44.6599 547.15 44.6599C570.81 44.6599 586.92 59.3399 586.92 86.4699Z" fill="white"/>
</g>
<defs>
<clipPath id="clip0_1704_1598">
<rect width="587" height="152" fill="white"/>
</clipPath>
</defs>
</svg>
